<svg width="204" height="234" viewBox="0 0 204 234" fill="none" xmlns="http://www.w3.org/2000/svg">
<g clip-path="url(#clip0_758_8360)">
<path d="M117.231 83.4629C116.47 82.5829 115.709 81.6791 114.924 80.7753C101.486 64.8871 93.8273 52.2575 93.9462 46.0735C94.0651 40.2225 97.1809 35.4418 103.222 31.8503C104.602 31.0178 106.933 29.3767 108.621 29.567C109.478 29.6621 110.239 30.0902 111.095 29.8524C111.904 29.6145 112.546 28.9961 113.307 28.6394C114.353 28.1637 115.091 28.4015 116.161 28.568C117.017 28.7107 117.992 28.6156 118.825 28.4253C120.585 28.0447 122.274 27.0458 123.059 25.3571C124.533 22.17 121.394 18.5547 118.254 18.1503C117.802 18.1028 117.327 18.1028 116.851 18.1741C114.829 18.5309 113.473 20.1958 111.951 21.4326C109.834 23.1213 107.408 24.0252 104.982 25.1192C97.7042 28.4015 91.0445 33.6341 89.1893 41.7923C88.8801 43.1718 88.7136 44.5751 88.6898 45.9784C88.4995 55.4209 100.106 71.6658 112.213 85.7225C113.83 84.89 115.519 84.1289 117.231 83.4629Z" fill="#298D74"/>
<path d="M20.9733 211.23C27.7995 212.372 33.8408 210.35 34.4354 206.687C35.0538 203.025 30.0115 199.148 23.1853 198.006C16.3591 196.864 10.3178 198.886 9.72319 202.549C9.10479 206.188 14.1471 210.065 20.9733 211.23Z" fill="#298D74"/>
<path d="M196.433 128.128C198.169 126.035 199.763 123.466 201 120.303C203.188 114.737 203.925 109.053 203.212 103.178C202.664 98.7062 201.88 94.2347 201.142 89.787C200.286 84.6733 199.382 79.5834 198.478 74.4697C198.026 71.9247 196.861 70.8068 194.34 70.3312C190.796 53.7057 185.421 37.7462 179.308 25.1879C177.952 22.1911 176.478 19.2656 174.932 16.34C173.148 12.9864 170.96 9.87063 168.201 7.27811C167.463 6.42186 166.726 5.61317 165.989 4.87585C162.754 1.61735 158.877 0 154.429 0C150.243 0.0237846 146.176 1.47465 142.537 3.44877C140.682 4.44773 138.922 5.66074 137.257 6.94511C134.997 8.68139 132.262 10.7031 129.408 11.2263C124.651 12.1064 123.248 18.7185 127.529 21.2872C130.597 23.1187 134.712 20.431 135.616 17.3152C135.949 16.1498 136.781 15.5076 137.78 14.913C138.375 14.5562 138.993 14.1994 139.445 13.6762C139.992 13.034 140.135 12.2015 139.944 11.3928C139.944 11.3453 139.921 11.3215 139.921 11.2977C143.679 8.49111 149.149 5.23262 154.405 5.23262C157.45 5.23262 159.995 6.30293 162.231 8.56247C172.601 19.0277 183.613 45.1432 189.321 72.3291C188.18 73.5897 187.775 75.1356 188.085 76.8719C189.012 82.1997 189.916 87.5274 190.867 92.8314C191.533 96.5656 192.366 100.276 192.865 104.034C193.769 110.67 192.104 116.616 187.442 121.539C186.206 122.848 184.802 123.989 183.304 124.893C182.091 125.63 180.83 126.225 179.498 126.653C176.24 127.723 172.672 127.819 169.104 126.606C167.939 126.225 166.797 125.678 165.656 125.012C165.632 125.012 165.632 124.988 165.608 124.988C162.754 123.276 160.066 121.206 157.521 119.066C152.36 114.689 147.341 110.17 142.275 105.675C140.682 104.248 138.969 103.653 136.9 104.177C135.092 102.488 132.857 100.324 130.359 97.7548C128.456 98.2067 126.554 98.7538 124.675 99.4435C127.838 102.726 130.716 105.556 133.023 107.744C132.31 109.956 132.785 111.431 134.736 113.191C137.923 116.069 141.11 118.947 144.368 121.754C148.935 125.702 153.407 129.769 158.496 133.051C160.019 134.026 161.565 134.883 163.158 135.596C164.276 136.096 165.394 136.524 166.559 136.881C169.842 137.903 173.29 138.284 176.93 137.88C176.977 137.88 177.025 137.856 177.072 137.856C178.38 137.689 179.665 137.404 180.973 137.118C180.997 137.166 181.02 137.19 181.068 137.214C181.092 137.166 181.092 137.118 181.116 137.071C181.805 136.904 182.495 136.762 183.209 136.619C183.209 136.643 183.732 136.548 184.588 136.262C185.159 137.166 185.896 138.331 186.729 139.758C187.3 141.186 187.656 142.66 187.799 144.206C187.918 145.277 187.918 146.394 187.847 147.512C186.99 160.308 174.361 174.603 163.8 182.975C152.075 192.275 139.16 197.698 127.053 198.697C124.08 198.958 121.131 198.935 118.277 198.649C121.392 197.389 123.628 196.437 124.318 196.08C124.889 195.771 125.436 195.462 126.007 195.153C138.042 188.422 148.816 180.121 157.236 171.083C165.775 161.926 172.006 152.031 175.835 141.59C175.265 141.637 174.67 141.637 174.099 141.637C171.126 141.637 168.201 141.186 165.299 140.258C155.523 164.376 132.904 179.669 119.418 186.995C115.827 188.945 112.069 190.777 108.192 192.441C106.67 193.107 105.1 193.75 103.53 194.368C103.506 194.344 103.483 194.344 103.459 194.32C102.412 193.654 101.342 192.988 100.272 192.275C81.2202 179.764 58.268 159.88 50.1812 133.289C47.5173 124.513 47.113 116.806 48.9682 110.384C51.3705 102.107 58.6723 95.0196 68.1148 91.4995C69.5181 90.9762 70.9928 90.5243 72.4912 90.1675C82.8613 87.6702 92.7319 90.0724 98.8684 96.5894C99.5819 97.3505 100.272 98.1592 100.914 99.0154C96.8229 103.963 94.3969 109.766 93.7785 116.283C93.3503 120.85 94.4206 125.179 96.8467 128.461C99.3916 131.886 103.364 133.789 107.193 133.36C110.713 132.98 113.639 130.792 115.208 127.295C117.896 121.373 118.181 114.261 116.041 106.745C115.494 104.795 114.757 102.821 113.9 100.942C115.327 99.9192 116.85 98.9916 118.443 98.1829C119.585 97.6121 120.75 97.0651 121.939 96.5894C123.723 95.8759 125.555 95.2574 127.434 94.758C128.789 94.3774 130.169 94.0682 131.548 93.7828C136.091 92.9028 140.587 92.5698 144.44 92.7125C152.693 93.0217 160.256 96.9462 164.704 103.202C168.248 108.22 169.889 115.189 169.461 122.848C171.055 123.49 172.696 123.823 174.337 123.823C176.192 123.823 178.047 123.395 179.807 122.61C180.212 112.929 177.928 104.058 173.1 97.2316C166.821 88.3599 156.237 82.8181 144.796 82.39C137.614 82.1283 130.217 83.1035 123.462 85.1014C122.177 85.482 120.941 85.9101 119.704 86.362C117.944 87.0042 116.231 87.7415 114.614 88.5502C114.114 88.788 113.615 89.0497 113.139 89.3113C112.521 89.6443 111.926 89.9773 111.332 90.334C110.38 90.9049 109.453 91.4757 108.572 92.0941C107.859 91.1903 107.122 90.334 106.384 89.5254C97.6791 80.2731 84.0981 76.7768 70.089 80.1542C63.0011 81.8667 56.389 85.1728 50.9661 89.7632C45.1389 94.6866 41.0241 100.847 39.0738 107.53C36.624 115.903 37.0521 125.607 40.3106 136.334C44.4253 149.843 52.2029 162.877 63.4293 175.031C71.1593 183.379 80.4828 191.324 91.2335 198.673C87.7847 199.72 84.2646 200.671 80.6493 201.527C70.8263 203.858 60.3373 205.499 49.3725 206.427C48.6114 206.498 47.9693 206.879 47.5411 207.45C45.1151 207.521 41.9755 207.64 40.4533 207.616C41.1906 203.192 39.5495 199.791 36.1959 197.246C31.0584 193.321 25.2311 191.561 18.7379 192.156C14.9562 192.513 11.3171 193.369 8.10621 195.581C4.34824 198.197 2.61197 202.693 3.89634 206.784C4.15797 207.664 3.96769 208.139 3.39686 208.758C-0.955731 213.467 -1.146 220.008 2.94496 224.812C5.96561 228.332 9.89007 230.473 14.2427 231.853C22.4008 234.445 30.4162 234.088 38.0273 229.974C43.7832 226.858 45.9951 220.912 44.4729 215.631C44.4491 215.536 44.4967 215.417 44.4967 215.417C44.9962 215.37 46.3043 215.251 47.5887 215.132C47.993 216.107 49.0158 216.773 50.1337 216.678C61.5978 215.703 72.6339 213.99 82.9564 211.54C85.3111 210.97 90.6864 209.114 96.8229 206.879C98.4165 206.284 100.058 205.689 101.723 205.071C103.387 205.737 105.052 206.355 106.694 206.879C106.789 206.902 106.884 206.926 106.979 206.974C112.021 208.544 117.349 209.329 122.796 209.329C138.446 209.329 155.262 203.026 170.198 191.181C182.995 181.025 197.075 164.423 198.169 148.25C198.383 144.967 198.098 141.828 197.289 138.831C196.528 136.024 195.339 133.36 193.674 130.863C194.744 130.031 195.6 129.127 196.433 128.128ZM104.101 117.258C104.363 114.475 105.124 111.954 106.242 109.695C107.431 113.976 107.597 118.4 106.218 122.134C106.051 122.562 105.457 122.681 105.195 122.301C104.315 121.111 103.911 119.209 104.101 117.258ZM6.13209 201.932C6.94077 197.127 12.1496 194.035 19.4515 194.035C20.8786 194.035 22.3294 194.154 23.8041 194.392C27.681 195.034 31.2487 196.509 33.8412 198.507C37.0283 200.956 38.5505 204.167 38.0511 207.259C37.2424 212.064 32.0336 215.156 24.7317 215.156C23.3046 215.156 21.8537 215.037 20.3791 214.799C16.5022 214.157 12.9345 212.682 10.342 210.684C7.15483 208.234 5.60883 205.047 6.13209 201.932ZM37.0759 225.859C34.0553 227.999 30.5827 228.856 26.9912 229.189C20.2126 229.807 13.8859 228.38 8.34406 224.36C5.29962 222.148 3.65849 219.104 4.56231 215.227C4.87151 213.895 5.6564 212.658 6.15588 211.564C8.72462 213.063 10.8652 214.633 13.2437 215.655C19.7369 218.509 26.349 218.509 32.9611 215.941C33.4368 215.75 33.9363 215.679 34.4358 215.631C35.8867 215.536 37.3613 215.584 38.8122 215.417C39.9776 215.275 40.4295 215.679 40.6912 216.773C41.476 220.198 40.1441 223.671 37.0759 225.859Z" fill="#298D74"/>
</g>
<defs>
<clipPath id="clip0_758_8360">
<rect width="203.475" height="233.499" fill="white"/>
</clipPath>
</defs>
</svg>
